<?xml version="1.0" encoding="UTF-8" standalone="no"?>
<!DOCTYPE svg PUBLIC "-//W3C//DTD SVG 1.1//EN" "http://www.w3.org/Graphics/SVG/1.1/DTD/svg11.dtd">
<svg width="120" viewBox="0 0 169 77" fill="none" xmlns="http://www.w3.org/2000/svg">
<mask id="mask0_7_48" style="mask-type:luminance" maskUnits="userSpaceOnUse" x="0" y="0" width="169" height="77">
<path d="M168.346 0H0V76.2946H168.346V0Z" fill="white"/>
</mask>
<g mask="url(#mask0_7_48)">
<path d="M94.2059 41.8792C92.8728 39.5699 92.8728 36.7248 94.2059 34.4156L108.971 8.84264C110.304 6.5334 112.768 5.11088 115.434 5.11088L144.963 5.11084C147.629 5.11084 150.094 6.5334 151.427 8.84264L166.191 34.4156C167.525 36.7248 167.525 39.5699 166.191 41.8792L151.427 67.4519C150.094 69.7615 147.629 71.1837 144.963 71.1837H115.434C112.768 71.1837 110.304 69.7615 108.971 67.4519L94.2059 41.8792Z" fill="#5ECCC5"/>
<path d="M51.9119 41.8792C50.5788 39.5699 50.5788 36.7248 51.9119 34.4156L66.6766 8.84264C68.0097 6.5334 70.4739 5.11088 73.14 5.11088L102.669 5.11084C105.336 5.11084 107.8 6.5334 109.133 8.84264L123.897 34.4156C125.231 36.7248 125.231 39.5699 123.897 41.8792L109.133 67.4519C107.8 69.7615 105.336 71.1837 102.669 71.1837H73.14C70.4739 71.1837 68.0097 69.7615 66.6766 67.4519L51.9119 41.8792Z" fill="#A5DFDD"/>
<path d="M8.78897 41.8792C7.45576 39.5699 7.45576 36.7248 8.78897 34.4156L23.5535 8.84264C24.8867 6.5334 27.3507 5.11088 30.0172 5.11088L59.5464 5.11084C62.2125 5.11084 64.6768 6.5334 66.0098 8.84264L80.7745 34.4156C82.1076 36.7248 82.1076 39.5699 80.7745 41.8792L66.0098 67.4519C64.6768 69.7615 62.2125 71.1837 59.5464 71.1837H30.0172C27.3507 71.1837 24.8867 69.7615 23.5535 67.4519L8.78897 41.8792Z" fill="#E1AA65"/>
<path d="M14.1646 50.4474L11.6768 46.0953C14.2951 46.0953 25.5292 46.0422 27.7583 45.9361C29.9874 45.8299 32.0043 45.6885 33.8088 45.5115C35.6133 45.3344 37.1525 45.1578 38.4263 44.9807C39.7354 44.7684 40.7262 44.5561 41.3985 44.3438C42.637 43.9545 43.769 43.4594 44.7952 42.8577C45.8567 42.2561 46.7059 41.513 47.3428 40.6286C48.0149 39.7086 48.3512 38.6471 48.3512 37.4441C48.3512 36.8426 48.2272 36.2057 47.9797 35.5335C47.7674 34.8612 47.449 34.242 47.0244 33.6759C46.635 33.0743 46.1573 32.5967 45.5913 32.2428C45.0606 31.8536 44.4768 31.659 43.8399 31.659C42.9907 31.659 42.1946 31.9598 41.4515 32.5613C40.7439 33.1628 40.16 33.9235 39.7001 34.8435C39.2755 35.7635 39.0632 36.7011 39.0632 37.6564C39.0632 38.7887 39.3463 39.7794 39.9124 40.6286C40.5139 41.4424 41.2392 42.1499 42.0884 42.7516C42.9376 43.3176 43.7868 43.7952 44.636 44.1846L39.5939 45.883C39.0278 45.4584 38.3555 44.8746 37.5771 44.1315C36.8341 43.3885 36.1618 42.4684 35.5603 41.3716C34.9942 40.2748 34.7111 39.001 34.7111 37.5503C34.7111 36.135 34.9587 34.8081 35.4541 33.5697C35.9495 32.3313 36.6395 31.2521 37.524 30.3322C38.4086 29.3768 39.3993 28.6338 40.4962 28.103C41.6286 27.5723 42.7962 27.3069 43.9991 27.3069C45.7327 27.3069 47.2545 27.8023 48.5635 28.793C49.8726 29.7483 50.881 30.9868 51.5888 32.5082C52.3318 33.9943 52.7033 35.5335 52.7033 37.1257C52.7033 38.6471 52.4201 40.0094 51.8541 41.2124C51.2881 42.4153 50.5094 43.4768 49.5189 44.3969C48.5635 45.317 47.4311 46.1131 46.1221 46.7852C44.8483 47.4574 43.4862 48.006 42.0354 48.4306C41.2215 48.6781 40.0539 48.9261 38.5324 49.1736C37.011 49.3859 35.2241 49.5804 33.1719 49.7574C31.1197 49.9697 28.8906 50.1289 26.4845 50.2351C24.1139 50.3765 16.7122 50.4474 14.1646 50.4474ZM56.6839 49.5982C54.9146 49.5982 53.1458 49.5099 51.3765 49.3328C49.6072 49.1205 47.8914 48.8373 46.2282 48.4836C44.6008 48.0943 43.079 47.6344 41.6638 47.1037L45.326 44.5561C46.3875 44.6975 47.6434 44.8215 49.0943 44.9276C50.5451 45.0338 51.9955 45.1221 53.4464 45.193C54.8972 45.2283 56.1532 45.2461 57.2146 45.2461C57.9577 45.2461 58.4884 45.4584 58.8069 45.883C59.1606 46.2723 59.3376 46.75 59.3376 47.316C59.3376 47.882 59.0901 48.4127 58.5946 48.9082C58.0991 49.3681 57.4622 49.5982 56.6839 49.5982ZM43.5214 21.8402C42.7784 21.8402 42.1415 21.5926 41.6108 21.0972C41.1154 20.5665 40.8677 19.9473 40.8677 19.2396C40.8677 18.5319 41.1154 17.9127 41.6108 17.382C42.1415 16.8512 42.7784 16.5859 43.5214 16.5859C44.2292 16.5859 44.8305 16.8512 45.326 17.382C45.8567 17.9127 46.1221 18.5319 46.1221 19.2396C46.1221 19.9473 45.8567 20.5665 45.326 21.0972C44.8305 21.5926 44.2292 21.8402 43.5214 21.8402Z" fill="white"/>
<path d="M56.665 49.5982L57.1958 45.2461H71.5259C72.2689 45.2461 72.7997 45.4584 73.1181 45.883C73.4718 46.2723 73.6489 46.75 73.6489 47.316C73.6489 47.882 73.4013 48.4127 72.9058 48.9082C72.4103 49.3681 71.7734 49.5982 70.9951 49.5982H56.665Z" fill="white"/>
<path d="M70.9707 49.5982L71.5014 45.2461H85.8316C86.5746 45.2461 87.1053 45.4584 87.4238 45.883C87.7775 46.2723 87.9545 46.75 87.9545 47.316C87.9545 47.882 87.707 48.4127 87.2115 48.9082C86.716 49.3681 86.0791 49.5982 85.3008 49.5982H70.9707Z" fill="white"/>
<path d="M85.2754 49.5982L85.8061 45.2461H100.136C100.879 45.2461 101.41 45.4584 101.728 45.883C102.082 46.2723 102.259 46.75 102.259 47.316C102.259 47.882 102.012 48.4127 101.516 48.9082C101.021 49.3681 100.384 49.5982 99.6055 49.5982H85.2754Z" fill="white"/>
<path d="M99.5811 49.5984L100.112 45.2463C101.881 45.2463 103.261 45.1223 104.252 44.8748C105.242 44.5916 105.985 44.0787 106.481 43.3356C107.011 42.5573 107.436 41.4426 107.755 39.9919C108.073 38.5412 108.462 36.6482 108.922 34.313L113.062 35.1091C112.921 35.746 112.761 36.4536 112.584 37.232C112.407 38.0105 112.248 38.7889 112.107 39.5673C112 40.3104 111.947 40.965 111.947 41.5311C111.947 42.0618 111.983 42.5573 112.054 43.0172C112.124 43.477 112.39 43.8664 112.85 44.1848C113.31 44.5033 114.088 44.7686 115.185 44.9809C116.282 45.158 117.856 45.2463 119.909 45.2463C120.652 45.2463 121.182 45.4586 121.501 45.8832C121.854 46.2725 122.032 46.7502 122.032 47.3162C122.032 47.8822 121.784 48.4129 121.289 48.9084C120.793 49.3683 120.156 49.5984 119.378 49.5984C117.22 49.5984 115.503 49.4923 114.23 49.28C112.956 49.0324 111.983 48.6783 111.311 48.2185C110.674 47.7586 110.214 47.1922 109.931 46.5201C109.683 45.8123 109.488 44.9988 109.347 44.0787L110.939 44.1848C110.373 45.3172 109.754 46.2369 109.081 46.9447C108.444 47.6525 107.701 48.2006 106.852 48.59C106.003 48.9793 104.977 49.2447 103.774 49.3861C102.606 49.5275 101.209 49.5984 99.5811 49.5984ZM112.956 59.6295C112.213 59.6295 111.576 59.3641 111.045 58.8334C110.55 58.3379 110.302 57.7366 110.302 57.0288C110.302 56.321 110.55 55.702 111.045 55.1712C111.576 54.6405 112.213 54.3751 112.956 54.3751C113.664 54.3751 114.265 54.6405 114.76 55.1712C115.291 55.702 115.556 56.321 115.556 57.0288C115.556 57.7366 115.291 58.3379 114.76 58.8334C114.265 59.3641 113.664 59.6295 112.956 59.6295ZM105.685 59.6295C104.942 59.6295 104.305 59.3641 103.774 58.8334C103.278 58.3379 103.031 57.7366 103.031 57.0288C103.031 56.321 103.278 55.702 103.774 55.1712C104.305 54.6405 104.942 54.3751 105.685 54.3751C106.392 54.3751 106.994 54.6405 107.489 55.1712C108.02 55.702 108.285 56.321 108.285 57.0288C108.285 57.7366 108.02 58.3379 107.489 58.8334C106.994 59.3641 106.392 59.6295 105.685 59.6295Z" fill="white"/>
<path d="M119.38 49.5982L119.911 45.2461C121.043 45.2461 121.963 45.1752 122.671 45.0338C123.378 44.8567 123.962 44.45 124.422 43.8131C124.917 43.1409 125.377 42.0969 125.802 40.6817C126.226 39.2664 126.722 37.2849 127.288 34.7373L131.269 35.8519C131.127 36.4534 130.968 37.1434 130.791 37.9218C130.614 38.6649 130.455 39.4433 130.313 40.2571C130.172 41.0355 130.101 41.761 130.101 42.4331C130.101 43.3176 130.437 44.0076 131.109 44.503C131.781 44.9985 133.002 45.2461 134.771 45.2461C135.833 45.2461 136.7 45.1578 137.372 44.9807C138.044 44.8037 138.593 44.3791 139.017 43.7069C139.477 43.0348 139.884 41.9555 140.238 40.4694C140.592 38.9833 140.963 36.9488 141.353 34.3658L145.386 35.1089C145.28 35.7458 145.156 36.5242 145.015 37.4441C144.873 38.3641 144.732 39.284 144.59 40.204C144.484 41.0886 144.431 41.8315 144.431 42.4331C144.431 42.9286 144.537 43.4063 144.749 43.8662C144.997 44.2907 145.457 44.627 146.129 44.8746C146.837 45.1221 147.881 45.2461 149.261 45.2461C150.287 45.2461 151.171 45.1221 151.915 44.8746C152.693 44.627 153.277 44.1668 153.666 43.4946C154.091 42.8225 154.303 41.8846 154.303 40.6817C154.303 39.3371 153.984 37.6564 153.348 35.6396C152.746 33.5874 152.056 31.5529 151.278 29.536L155.577 27.9438C156.037 29.0761 156.461 30.3675 156.85 31.8182C157.275 33.269 157.629 34.702 157.912 36.1173C158.195 37.5326 158.337 38.771 158.337 39.8325C158.337 41.4601 158.124 42.893 157.7 44.1315C157.275 45.3701 156.673 46.3959 155.895 47.2098C155.117 47.9881 154.161 48.5898 153.029 49.0144C151.897 49.4037 150.623 49.5982 149.208 49.5982C147.545 49.5982 146.182 49.4037 145.121 49.0144C144.06 48.625 143.246 48.0412 142.68 47.2629C142.114 46.449 141.742 45.4231 141.565 44.1846H143.37C142.697 45.7059 141.99 46.8562 141.247 47.6344C140.504 48.4127 139.583 48.9435 138.487 49.2267C137.39 49.4742 135.939 49.5982 134.135 49.5982C133.25 49.5982 132.295 49.4568 131.269 49.1736C130.278 48.8904 129.411 48.3422 128.668 47.5283C127.925 46.6791 127.482 45.4231 127.341 43.76L128.933 43.4416C128.332 45.2461 127.589 46.5908 126.704 47.4752C125.855 48.3244 124.829 48.8904 123.626 49.1736C122.423 49.4568 121.007 49.5982 119.38 49.5982Z" fill="white"/>
<path d="M134.149 28.1994V25.9703L143.065 23.3431V25.612L134.149 28.1994ZM135.661 21.5518C134.6 21.5518 133.897 21.2069 133.552 20.5169C133.207 19.8004 133.034 19.0441 133.034 18.248C133.034 17.9561 133.047 17.6509 133.074 17.3324C133.127 16.9874 133.193 16.6027 133.273 16.1781L135.263 15.6208C135.184 16.0719 135.117 16.4965 135.064 16.8946C135.038 17.2661 135.024 17.5978 135.024 17.8897C135.024 18.3939 135.104 18.7654 135.263 19.0043C135.423 19.2431 135.675 19.3625 136.02 19.3625C136.418 19.3625 136.749 19.1635 137.015 18.7654C137.28 18.3408 137.426 17.5049 137.453 16.2577V15.0635L139.363 14.347V16.7751C139.363 17.1467 139.43 17.4784 139.562 17.7703C139.722 18.0357 140.04 18.1684 140.518 18.1684C140.995 18.1684 141.314 18.0224 141.473 17.7305C141.632 17.4386 141.712 17.0671 141.712 16.6159C141.712 16.1648 141.659 15.7137 141.553 15.2625C141.446 14.7849 141.301 14.3205 141.115 13.8693L142.906 13.312C143.171 13.8162 143.384 14.4001 143.543 15.0635C143.729 15.7004 143.822 16.2842 143.822 16.815C143.822 17.6907 143.569 18.4868 143.065 19.2033C142.588 19.8933 141.831 20.2383 140.796 20.2383C139.974 20.2383 139.297 20.026 138.766 19.6014C138.262 19.1502 138.01 18.6195 138.01 18.0091L138.925 18.3674C138.925 19.2696 138.607 20.026 137.97 20.6363C137.36 21.2467 136.59 21.5518 135.661 21.5518Z" fill="white"/>
</g>
</svg>
